<svg width="206" height="24" viewBox="0 0 206 24" fill="none" xmlns="http://www.w3.org/2000/svg">
<g clip-path="url(#clip0)">
<path d="M17.064 22L15.9771 18.4316H10.5117L9.4248 22H6L11.291 6.94727H15.1772L20.4888 22H17.064ZM15.2183 15.7656C14.2134 12.5322 13.646 10.7036 13.5161 10.2798C13.3931 9.85596 13.3042 9.521 13.2495 9.2749C13.0239 10.1499 12.3779 12.3135 11.3115 15.7656H15.2183ZM33.5367 13.5815H39.4839V21.354C38.5201 21.6685 37.6109 21.8872 36.7564 22.0103C35.9087 22.1401 35.0406 22.2051 34.1519 22.2051C31.8892 22.2051 30.1597 21.542 28.9634 20.2158C27.774 18.8828 27.1792 16.9722 27.1792 14.4839C27.1792 12.064 27.8697 10.1772 29.2505 8.82373C30.6382 7.47021 32.5591 6.79346 35.0132 6.79346C36.5513 6.79346 38.0347 7.10107 39.4634 7.71631L38.4073 10.2593C37.3135 9.7124 36.1753 9.43896 34.9927 9.43896C33.6187 9.43896 32.5181 9.90039 31.691 10.8232C30.8638 11.7461 30.4502 12.9868 30.4502 14.5454C30.4502 16.1724 30.7818 17.4165 31.4449 18.2778C32.1148 19.1323 33.0855 19.5596 34.357 19.5596C35.0201 19.5596 35.6934 19.4912 36.377 19.3545V16.2271H33.5367V13.5815ZM54.2135 13.5815H60.1607V21.354C59.1969 21.6685 58.2877 21.8872 57.4332 22.0103C56.5855 22.1401 55.7174 22.2051 54.8287 22.2051C52.566 22.2051 50.8365 21.542 49.6402 20.2158C48.4508 18.8828 47.856 16.9722 47.856 14.4839C47.856 12.064 48.5465 10.1772 49.9273 8.82373C51.315 7.47021 53.2359 6.79346 55.69 6.79346C57.2281 6.79346 58.7115 7.10107 60.1402 7.71631L59.0841 10.2593C57.9903 9.7124 56.8521 9.43896 55.6695 9.43896C54.2955 9.43896 53.1949 9.90039 52.3678 10.8232C51.5406 11.7461 51.127 12.9868 51.127 14.5454C51.127 16.1724 51.4586 17.4165 52.1217 18.2778C52.7916 19.1323 53.7623 19.5596 55.0338 19.5596C55.6969 19.5596 56.3702 19.4912 57.0538 19.3545V16.2271H54.2135V13.5815ZM72.378 13.6636H73.4034C74.4083 13.6636 75.15 13.4961 75.6285 13.1611C76.1071 12.8262 76.3463 12.2998 76.3463 11.582C76.3463 10.8711 76.1002 10.3652 75.608 10.0645C75.1227 9.76367 74.3673 9.61328 73.3419 9.61328H72.378V13.6636ZM72.378 16.2476V22H69.1993V7.00879H73.5675C75.6046 7.00879 77.1119 7.38135 78.0895 8.12646C79.067 8.86475 79.5558 9.98926 79.5558 11.5C79.5558 12.3818 79.3131 13.168 78.8278 13.8584C78.3424 14.542 77.6554 15.0786 76.7667 15.4683C79.0226 18.8384 80.4923 21.0156 81.1759 22H77.6486L74.0699 16.2476H72.378ZM97.1564 22H88.5226V7.00879H97.1564V9.61328H91.7013V12.9048H96.777V15.5093H91.7013V19.375H97.1564V22ZM111.445 13.5815H117.392V21.354C116.428 21.6685 115.519 21.8872 114.665 22.0103C113.817 22.1401 112.949 22.2051 112.06 22.2051C109.798 22.2051 108.068 21.542 106.872 20.2158C105.682 18.8828 105.088 16.9722 105.088 14.4839C105.088 12.064 105.778 10.1772 107.159 8.82373C108.547 7.47021 110.467 6.79346 112.922 6.79346C114.46 6.79346 115.943 7.10107 117.372 7.71631L116.316 10.2593C115.222 9.7124 114.084 9.43896 112.901 9.43896C111.527 9.43896 110.426 9.90039 109.599 10.8232C108.772 11.7461 108.359 12.9868 108.359 14.5454C108.359 16.1724 108.69 17.4165 109.353 18.2778C110.023 19.1323 110.994 19.5596 112.265 19.5596C112.928 19.5596 113.602 19.4912 114.285 19.3545V16.2271H111.445V13.5815ZM135.608 22L134.521 18.4316H129.056L127.969 22H124.544L129.835 6.94727H133.721L139.033 22H135.608ZM133.762 15.7656C132.758 12.5322 132.19 10.7036 132.06 10.2798C131.937 9.85596 131.848 9.521 131.794 9.2749C131.568 10.1499 130.922 12.3135 129.856 15.7656H133.762ZM152.173 22H148.994V9.6543H144.924V7.00879H156.244V9.6543H152.173V22ZM177.618 14.4839C177.618 16.9653 177.003 18.8726 175.772 20.2056C174.542 21.5386 172.778 22.2051 170.481 22.2051C168.184 22.2051 166.421 21.5386 165.19 20.2056C163.96 18.8726 163.345 16.9585 163.345 14.4634C163.345 11.9683 163.96 10.0645 165.19 8.75195C166.428 7.43262 168.198 6.77295 170.502 6.77295C172.805 6.77295 174.566 7.43604 175.783 8.76221C177.006 10.0884 177.618 11.9956 177.618 14.4839ZM166.677 14.4839C166.677 16.1587 166.995 17.4199 167.631 18.2676C168.266 19.1152 169.217 19.5391 170.481 19.5391C173.017 19.5391 174.285 17.854 174.285 14.4839C174.285 11.1069 173.024 9.41846 170.502 9.41846C169.237 9.41846 168.284 9.8457 167.641 10.7002C166.998 11.5479 166.677 12.8091 166.677 14.4839ZM189.364 13.6636H190.389C191.394 13.6636 192.136 13.4961 192.614 13.1611C193.093 12.8262 193.332 12.2998 193.332 11.582C193.332 10.8711 193.086 10.3652 192.594 10.0645C192.108 9.76367 191.353 9.61328 190.327 9.61328H189.364V13.6636ZM189.364 16.2476V22H186.185V7.00879H190.553C192.59 7.00879 194.098 7.38135 195.075 8.12646C196.053 8.86475 196.541 9.98926 196.541 11.5C196.541 12.3818 196.299 13.168 195.813 13.8584C195.328 14.542 194.641 15.0786 193.752 15.4683C196.008 18.8384 197.478 21.0156 198.161 22H194.634L191.056 16.2476H189.364Z" fill="white"/>
<path d="M87.4014 5H86.5078V3.08691C86.5078 2.85059 86.4678 2.67383 86.3877 2.55664C86.3096 2.4375 86.1855 2.37793 86.0156 2.37793C85.7871 2.37793 85.6211 2.46191 85.5176 2.62988C85.4141 2.79785 85.3623 3.07422 85.3623 3.45898V5H84.4688V1.72461H85.1514L85.2715 2.14355H85.3213C85.4092 1.99316 85.5361 1.87598 85.7021 1.79199C85.8682 1.70605 86.0586 1.66309 86.2734 1.66309C86.7637 1.66309 87.0957 1.82324 87.2695 2.14355H87.3486C87.4365 1.99121 87.5654 1.87305 87.7354 1.78906C87.9072 1.70508 88.1006 1.66309 88.3154 1.66309C88.6865 1.66309 88.9668 1.75879 89.1562 1.9502C89.3477 2.13965 89.4434 2.44434 89.4434 2.86426V5H88.5469V3.08691C88.5469 2.85059 88.5068 2.67383 88.4268 2.55664C88.3486 2.4375 88.2246 2.37793 88.0547 2.37793C87.8359 2.37793 87.6719 2.45605 87.5625 2.6123C87.4551 2.76855 87.4014 3.0166 87.4014 3.35645V5ZM91.9752 3.35645C91.9752 3.68066 92.0279 3.92578 92.1334 4.0918C92.2408 4.25781 92.4146 4.34082 92.6549 4.34082C92.8932 4.34082 93.0641 4.25879 93.1676 4.09473C93.273 3.92871 93.3258 3.68262 93.3258 3.35645C93.3258 3.03223 93.273 2.78906 93.1676 2.62695C93.0621 2.46484 92.8893 2.38379 92.649 2.38379C92.4107 2.38379 92.2389 2.46484 92.1334 2.62695C92.0279 2.78711 91.9752 3.03027 91.9752 3.35645ZM94.2398 3.35645C94.2398 3.88965 94.0992 4.30664 93.818 4.60742C93.5367 4.9082 93.1451 5.05859 92.6432 5.05859C92.3287 5.05859 92.0514 4.99023 91.8111 4.85352C91.5709 4.71484 91.3863 4.5166 91.2574 4.25879C91.1285 4.00098 91.0641 3.7002 91.0641 3.35645C91.0641 2.82129 91.2037 2.40527 91.483 2.1084C91.7623 1.81152 92.1549 1.66309 92.6607 1.66309C92.9752 1.66309 93.2525 1.73145 93.4928 1.86816C93.733 2.00488 93.9176 2.20117 94.0465 2.45703C94.1754 2.71289 94.2398 3.0127 94.2398 3.35645ZM96.6574 5L95.4094 1.72461H96.3439L96.9768 3.59082C97.0471 3.82715 97.091 4.05078 97.1086 4.26172H97.1262C97.1359 4.07422 97.1799 3.85059 97.258 3.59082L97.8879 1.72461H98.8225L97.5744 5H96.6574ZM100.156 0.87793C100.156 0.586914 100.318 0.441406 100.642 0.441406C100.967 0.441406 101.129 0.586914 101.129 0.87793C101.129 1.0166 101.088 1.125 101.006 1.20312C100.926 1.2793 100.804 1.31738 100.642 1.31738C100.318 1.31738 100.156 1.1709 100.156 0.87793ZM101.088 5H100.194V1.72461H101.088V5ZM104.285 2.29883C104.095 2.29883 103.947 2.35938 103.839 2.48047C103.732 2.59961 103.67 2.76953 103.655 2.99023H104.909C104.905 2.76953 104.847 2.59961 104.736 2.48047C104.624 2.35938 104.474 2.29883 104.285 2.29883ZM104.411 5.05859C103.883 5.05859 103.471 4.91309 103.174 4.62207C102.877 4.33105 102.729 3.91895 102.729 3.38574C102.729 2.83691 102.866 2.41309 103.139 2.11426C103.414 1.81348 103.794 1.66309 104.279 1.66309C104.742 1.66309 105.102 1.79492 105.36 2.05859C105.618 2.32227 105.746 2.68652 105.746 3.15137V3.58496H103.634C103.644 3.83887 103.719 4.03711 103.86 4.17969C104 4.32227 104.198 4.39355 104.452 4.39355C104.649 4.39355 104.835 4.37305 105.011 4.33203C105.187 4.29102 105.371 4.22559 105.562 4.13574V4.82715C105.406 4.90527 105.239 4.96289 105.061 5C104.883 5.03906 104.666 5.05859 104.411 5.05859ZM110.725 5H109.832V0.441406H110.725V5ZM112.528 0.87793C112.528 0.586914 112.69 0.441406 113.014 0.441406C113.338 0.441406 113.5 0.586914 113.5 0.87793C113.5 1.0166 113.459 1.125 113.377 1.20312C113.297 1.2793 113.176 1.31738 113.014 1.31738C112.69 1.31738 112.528 1.1709 112.528 0.87793ZM113.459 5H112.566V1.72461H113.459V5ZM117.585 4.02734C117.585 4.36328 117.468 4.61914 117.233 4.79492C117.001 4.9707 116.652 5.05859 116.187 5.05859C115.949 5.05859 115.746 5.04199 115.578 5.00879C115.41 4.97754 115.253 4.93066 115.106 4.86816V4.12988C115.272 4.20801 115.459 4.27344 115.666 4.32617C115.875 4.37891 116.058 4.40527 116.217 4.40527C116.541 4.40527 116.703 4.31152 116.703 4.12402C116.703 4.05371 116.681 3.99707 116.638 3.9541C116.596 3.90918 116.521 3.85938 116.416 3.80469C116.31 3.74805 116.17 3.68262 115.994 3.6084C115.742 3.50293 115.556 3.40527 115.437 3.31543C115.32 3.22559 115.234 3.12305 115.179 3.00781C115.127 2.89062 115.1 2.74707 115.1 2.57715C115.1 2.28613 115.213 2.06152 115.437 1.90332C115.664 1.74316 115.984 1.66309 116.398 1.66309C116.793 1.66309 117.177 1.74902 117.55 1.9209L117.28 2.56543C117.116 2.49512 116.963 2.4375 116.82 2.39258C116.678 2.34766 116.532 2.3252 116.384 2.3252C116.12 2.3252 115.988 2.39648 115.988 2.53906C115.988 2.61914 116.03 2.68848 116.114 2.74707C116.2 2.80566 116.387 2.89258 116.674 3.00781C116.929 3.11133 117.117 3.20801 117.236 3.29785C117.355 3.3877 117.443 3.49121 117.5 3.6084C117.556 3.72559 117.585 3.86523 117.585 4.02734ZM120.562 4.34668C120.718 4.34668 120.906 4.3125 121.124 4.24414V4.90918C120.902 5.00879 120.628 5.05859 120.304 5.05859C119.947 5.05859 119.686 4.96875 119.522 4.78906C119.36 4.60742 119.279 4.33594 119.279 3.97461V2.39551H118.851V2.01758L119.343 1.71875L119.601 1.02734H120.172V1.72461H121.089V2.39551H120.172V3.97461C120.172 4.10156 120.207 4.19531 120.278 4.25586C120.35 4.31641 120.445 4.34668 120.562 4.34668Z" fill="#333333"/>
</g>
<defs>
<clipPath id="clip0">
<rect width="206" height="24" fill="white"/>
</clipPath>
</defs>
</svg>
